<?xml version="1.0" encoding="UTF-8"?>
<svg version="1.1" xmlns="http://www.w3.org/2000/svg" width="180" height="180">
<path d="M0 0 C59.4 0 118.8 0 180 0 C180 59.4 180 118.8 180 180 C120.6 180 61.2 180 0 180 C0 120.6 0 61.2 0 0 Z " fill="#58BA35" transform="translate(0,0)"/>
<path d="M0 0 C6.83515069 5.1310965 13.3731595 10.47079605 18.9453125 16.9921875 C18.9453125 17.6521875 18.9453125 18.3121875 18.9453125 18.9921875 C19.6053125 18.9921875 20.2653125 18.9921875 20.9453125 18.9921875 C27.93122799 31.65415933 27.93122799 31.65415933 26.9453125 37.9921875 C24.38166422 40.55583578 17.57187695 39.37220458 14.1328125 39.4296875 C12.47282227 39.49833008 12.47282227 39.49833008 10.77929688 39.56835938 C7.72480938 39.61085981 4.94525298 39.57372061 1.9453125 38.9921875 C-0.55859375 36.2421875 -0.55859375 36.2421875 -2.0546875 32.9921875 C-8.95061347 25.06321426 -17.40274734 16.90953673 -28.0546875 14.9921875 C-29.3746875 14.9921875 -30.6946875 14.9921875 -32.0546875 14.9921875 C-32.3846875 47.0021875 -32.7146875 79.0121875 -33.0546875 111.9921875 C-21.56264453 109.43840017 -14.48537953 104.97298181 -6.0546875 96.9921875 C-5.2915625 96.2909375 -4.5284375 95.5896875 -3.7421875 94.8671875 C-1.82299405 92.73475033 -0.48925582 90.47007823 0.9453125 87.9921875 C2.9453125 85.9921875 2.9453125 85.9921875 5.26782227 85.74926758 C6.21455811 85.75337646 7.16129395 85.75748535 8.13671875 85.76171875 C9.16345703 85.76365234 10.19019531 85.76558594 11.24804688 85.76757812 C12.32376953 85.77982422 13.39949219 85.79207031 14.5078125 85.8046875 C15.58740234 85.80533203 16.66699219 85.80597656 17.77929688 85.80664062 C25.80516652 85.85204152 25.80516652 85.85204152 26.9453125 86.9921875 C27.08646411 89.66277601 26.98778357 92.31650988 26.9453125 94.9921875 C26.2853125 94.9921875 25.6253125 94.9921875 24.9453125 94.9921875 C24.8628125 95.6728125 24.7803125 96.3534375 24.6953125 97.0546875 C22.63828587 105.11137513 16.82765033 111.34832283 10.9453125 116.9921875 C10.2853125 116.9921875 9.6253125 116.9921875 8.9453125 116.9921875 C8.71199219 117.57871094 8.47867188 118.16523438 8.23828125 118.76953125 C4.62614326 124.9789165 -3.63260423 128.46922622 -10.0546875 130.9921875 C-12.49196662 132.27707929 -14.91877843 133.57674511 -17.33203125 134.90625 C-31.54462311 140.57497387 -55.40596934 139.27139322 -69.3046875 133.4296875 C-72.29794891 132.07197505 -75.18856885 130.59974136 -78.0546875 128.9921875 C-79.06144531 128.43015625 -80.06820312 127.868125 -81.10546875 127.2890625 C-87.00469536 123.50915369 -91.78644293 118.47915996 -96.609375 113.4453125 C-98.92797666 110.99402899 -98.92797666 110.99402899 -101.375 109.2890625 C-101.92929688 108.86109375 -102.48359375 108.433125 -103.0546875 107.9921875 C-103.0546875 107.3321875 -103.0546875 106.6721875 -103.0546875 105.9921875 C-103.7146875 105.9921875 -104.3746875 105.9921875 -105.0546875 105.9921875 C-106.03162436 103.80523747 -107.00525158 101.61696992 -107.97265625 99.42578125 C-108.85588745 97.43930819 -109.76420154 95.46400342 -110.6796875 93.4921875 C-112.00504188 90.11855817 -112.83331026 86.94131321 -113.52734375 83.3984375 C-114.03376651 80.86180454 -114.03376651 80.86180454 -115.09765625 77.984375 C-116.64571417 72.64110145 -116.34371033 67.13241399 -116.3046875 61.6171875 C-116.31242187 60.53179687 -116.32015625 59.44640625 -116.328125 58.328125 C-116.31264632 51.91995181 -115.86678639 46.15587597 -114.0546875 39.9921875 C-113.0646875 39.4971875 -113.0646875 39.4971875 -112.0546875 38.9921875 C-111.19668533 36.27443194 -110.58187578 33.52855334 -109.93359375 30.75390625 C-109.02637976 27.90323831 -108.13012127 26.13901211 -106.0546875 23.9921875 C-105.0646875 23.9921875 -104.0746875 23.9921875 -103.0546875 23.9921875 C-102.93222656 23.41082031 -102.80976562 22.82945313 -102.68359375 22.23046875 C-100.56011212 14.67298445 -95.01723958 9.69173594 -89.0546875 4.9921875 C-88.07371094 4.1878125 -87.09273437 3.3834375 -86.08203125 2.5546875 C-85.03278898 1.71941728 -83.982012 0.88607118 -82.9296875 0.0546875 C-81.95773438 -0.71746094 -80.98578125 -1.48960938 -79.984375 -2.28515625 C-76.68610951 -4.22453636 -74.81392183 -4.37034994 -71.0546875 -4.0078125 C-71.0546875 -4.6678125 -71.0546875 -5.3278125 -71.0546875 -6.0078125 C-49.06882798 -16.31943841 -20.17424765 -13.26031112 0 0 Z " fill="#4EB152" transform="translate(131.0546875,25.0078125)"/>
<path d="M0 0 C0 34.32 0 68.64 0 104 C-13.9597914 101.6733681 -24.57219852 94.3849248 -33 83 C-41.4719976 70.21498543 -43.71415238 56.08519896 -42 41 C-38.58141231 26.52038191 -29.65269765 14.1116265 -17.125 6.1796875 C-6.13888889 0 -6.13888889 0 0 0 Z " fill="#5ABB35" transform="translate(78,36)"/>
<path d="M0 0 C6.83515069 5.1310965 13.3731595 10.47079605 18.9453125 16.9921875 C18.9453125 17.6521875 18.9453125 18.3121875 18.9453125 18.9921875 C19.6053125 18.9921875 20.2653125 18.9921875 20.9453125 18.9921875 C27.93122799 31.65415933 27.93122799 31.65415933 26.9453125 37.9921875 C24.38166422 40.55583578 17.57187695 39.37220458 14.1328125 39.4296875 C12.47282227 39.49833008 12.47282227 39.49833008 10.77929688 39.56835938 C7.72480938 39.61085981 4.94525298 39.57372061 1.9453125 38.9921875 C-0.55859375 36.2421875 -0.55859375 36.2421875 -2.0546875 32.9921875 C-8.95061347 25.06321426 -17.40274734 16.90953673 -28.0546875 14.9921875 C-29.3746875 14.9921875 -30.6946875 14.9921875 -32.0546875 14.9921875 C-32.3846875 47.0021875 -32.7146875 79.0121875 -33.0546875 111.9921875 C-21.56264453 109.43840017 -14.48537953 104.97298181 -6.0546875 96.9921875 C-5.2915625 96.2909375 -4.5284375 95.5896875 -3.7421875 94.8671875 C-1.82299405 92.73475033 -0.48925582 90.47007823 0.9453125 87.9921875 C2.9453125 85.9921875 2.9453125 85.9921875 5.26782227 85.74926758 C6.21455811 85.75337646 7.16129395 85.75748535 8.13671875 85.76171875 C9.16345703 85.76365234 10.19019531 85.76558594 11.24804688 85.76757812 C12.32376953 85.77982422 13.39949219 85.79207031 14.5078125 85.8046875 C15.58740234 85.80533203 16.66699219 85.80597656 17.77929688 85.80664062 C25.80516652 85.85204152 25.80516652 85.85204152 26.9453125 86.9921875 C27.08646411 89.66277601 26.98778357 92.31650988 26.9453125 94.9921875 C26.2853125 94.9921875 25.6253125 94.9921875 24.9453125 94.9921875 C24.8628125 95.6728125 24.7803125 96.3534375 24.6953125 97.0546875 C22.63828587 105.11137513 16.82765033 111.34832283 10.9453125 116.9921875 C10.2853125 116.9921875 9.6253125 116.9921875 8.9453125 116.9921875 C8.71199219 117.57871094 8.47867188 118.16523438 8.23828125 118.76953125 C4.62614326 124.9789165 -3.63260423 128.46922622 -10.0546875 130.9921875 C-12.49196662 132.27707929 -14.91877843 133.57674511 -17.33203125 134.90625 C-31.54462311 140.57497387 -55.40596934 139.27139322 -69.3046875 133.4296875 C-72.29794891 132.07197505 -75.18856885 130.59974136 -78.0546875 128.9921875 C-79.06144531 128.43015625 -80.06820312 127.868125 -81.10546875 127.2890625 C-87.00469536 123.50915369 -91.78644293 118.47915996 -96.609375 113.4453125 C-98.92797666 110.99402899 -98.92797666 110.99402899 -101.375 109.2890625 C-101.92929688 108.86109375 -102.48359375 108.433125 -103.0546875 107.9921875 C-103.0546875 107.3321875 -103.0546875 106.6721875 -103.0546875 105.9921875 C-103.7146875 105.9921875 -104.3746875 105.9921875 -105.0546875 105.9921875 C-106.03162436 103.80523747 -107.00525158 101.61696992 -107.97265625 99.42578125 C-108.85588745 97.43930819 -109.76420154 95.46400342 -110.6796875 93.4921875 C-112.00504188 90.11855817 -112.83331026 86.94131321 -113.52734375 83.3984375 C-114.03376651 80.86180454 -114.03376651 80.86180454 -115.09765625 77.984375 C-116.64571417 72.64110145 -116.34371033 67.13241399 -116.3046875 61.6171875 C-116.31242187 60.53179687 -116.32015625 59.44640625 -116.328125 58.328125 C-116.31264632 51.91995181 -115.86678639 46.15587597 -114.0546875 39.9921875 C-113.0646875 39.4971875 -113.0646875 39.4971875 -112.0546875 38.9921875 C-111.19668533 36.27443194 -110.58187578 33.52855334 -109.93359375 30.75390625 C-109.02637976 27.90323831 -108.13012127 26.13901211 -106.0546875 23.9921875 C-105.0646875 23.9921875 -104.0746875 23.9921875 -103.0546875 23.9921875 C-102.93222656 23.41082031 -102.80976562 22.82945313 -102.68359375 22.23046875 C-100.56011212 14.67298445 -95.01723958 9.69173594 -89.0546875 4.9921875 C-88.07371094 4.1878125 -87.09273437 3.3834375 -86.08203125 2.5546875 C-85.03278898 1.71941728 -83.982012 0.88607118 -82.9296875 0.0546875 C-81.95773438 -0.71746094 -80.98578125 -1.48960938 -79.984375 -2.28515625 C-76.68610951 -4.22453636 -74.81392183 -4.37034994 -71.0546875 -4.0078125 C-71.0546875 -4.6678125 -71.0546875 -5.3278125 -71.0546875 -6.0078125 C-49.06882798 -16.31943841 -20.17424765 -13.26031112 0 0 Z M-95.0546875 14.9921875 C-107.8058772 29.5178146 -113.84107221 47.14493307 -113.33984375 66.453125 C-111.8091958 85.44993383 -104.40394975 102.9233236 -90.40234375 116.08984375 C-72.70779253 130.42802419 -53.65406042 135.79869213 -31.0546875 133.9921875 C-12.54584369 131.40260935 2.94436577 120.91636287 14.9453125 106.9921875 C18.72646704 101.79310001 22.53171269 96.32069982 23.9453125 89.9921875 C20.73822562 89.75829056 17.53333655 89.61731222 14.3203125 89.4921875 C13.41667969 89.42515625 12.51304687 89.358125 11.58203125 89.2890625 C6.3768247 89.0919525 6.3768247 89.0919525 2.07006836 91.68115234 C0.55128781 93.72268364 -0.74102768 95.8152364 -2.0546875 97.9921875 C-6.53216479 103.35199511 -11.38898648 106.56344326 -17.6015625 109.73046875 C-20.20652704 111.01200799 -20.20652704 111.01200799 -23.0546875 112.9921875 C-27.0146875 113.9821875 -30.9746875 114.9721875 -35.0546875 115.9921875 C-35.0546875 81.0121875 -35.0546875 46.0321875 -35.0546875 9.9921875 C-21.11061403 14.34971046 -9.34115764 18.62593499 -0.0546875 29.9921875 C0.71101563 31.57 0.71101563 31.57 1.4921875 33.1796875 C3.58382231 36.14076522 3.58382231 36.14076522 6.13867188 36.47412109 C8.84717878 36.58363362 11.48877616 36.51502352 14.1953125 36.3671875 C15.13117188 36.34011719 16.06703125 36.31304687 17.03125 36.28515625 C19.3382849 36.21453273 21.64062019 36.11599329 23.9453125 35.9921875 C19.25760643 20.20324716 6.08521053 7.69752423 -8.0546875 -0.0078125 C-37.247829 -15.79021987 -72.37741982 -8.49236156 -95.0546875 14.9921875 Z " fill="#D8EFC8" transform="translate(131.0546875,25.0078125)"/>
<path d="M0 0 C1.24006181 3.82745723 1.12692202 7.63345592 1.09765625 11.609375 C1.0962413 12.33618469 1.09482635 13.06299438 1.09336853 13.81182861 C1.08778792 16.12459494 1.07523904 18.43726312 1.0625 20.75 C1.05748249 22.32161318 1.05292002 23.89322789 1.04882812 25.46484375 C1.03782485 29.30993343 1.02057361 33.1549501 1 37 C1.99 36.505 1.99 36.505 3 36 C3.226875 37.2375 3.45375 38.475 3.6875 39.75 C7.86362102 58.05628391 18.82469453 72.84485529 34.52734375 82.7902832 C50.40595808 92.48152522 68.82875429 95.7853801 87.203125 92.3125 C99.22417794 89.34433878 109.71087755 84.19131707 119 76 C119.75023437 75.34386719 120.50046875 74.68773437 121.2734375 74.01171875 C128.63655102 67.1386418 133.55709329 58.99087809 138 50 C137.44014404 50 136.88028809 50 136.3034668 50 C129.53564453 50 122.76782227 50 116 50 C115.01 50.66 114.02 51.32 113 52 C114.15173355 49.53199953 115.04783565 47.95216435 117 46 C119.32250977 45.75708008 119.32250977 45.75708008 122.19140625 45.76953125 C123.21814453 45.77146484 124.24488281 45.77339844 125.30273438 45.77539062 C126.37845703 45.78763672 127.45417969 45.79988281 128.5625 45.8125 C129.64208984 45.81314453 130.72167969 45.81378906 131.83398438 45.81445312 C139.85985402 45.85985402 139.85985402 45.85985402 141 47 C141.14115161 49.67058851 141.04247107 52.32432238 141 55 C140.34 55 139.68 55 139 55 C138.9175 55.680625 138.835 56.36125 138.75 57.0625 C136.69297337 65.11918763 130.88233783 71.35613533 125 77 C124.34 77 123.68 77 123 77 C122.76667969 77.58652344 122.53335938 78.17304688 122.29296875 78.77734375 C118.68083076 84.986729 110.42208327 88.47703872 104 91 C101.56272088 92.28489179 99.13590907 93.58455761 96.72265625 94.9140625 C82.51006439 100.58278637 58.64871816 99.27920572 44.75 93.4375 C41.75673859 92.07978755 38.86611865 90.60755386 36 89 C34.99324219 88.43796875 33.98648438 87.8759375 32.94921875 87.296875 C27.04999214 83.51696619 22.26824457 78.48697246 17.4453125 73.453125 C15.12671084 71.00184149 15.12671084 71.00184149 12.6796875 69.296875 C12.12539063 68.86890625 11.57109375 68.4409375 11 68 C11 67.34 11 66.68 11 66 C10.34 66 9.68 66 9 66 C8.02306314 63.81304997 7.04943592 61.62478242 6.08203125 59.43359375 C5.19880005 57.44712069 4.29048596 55.47181592 3.375 53.5 C2.04964562 50.12637067 1.22137724 46.94912571 0.52734375 43.40625 C0.02092099 40.86961704 0.02092099 40.86961704 -1.04296875 37.9921875 C-2.59102667 32.64891395 -2.28902283 27.14022649 -2.25 21.625 C-2.25773438 20.53960937 -2.26546875 19.45421875 -2.2734375 18.3359375 C-2.25791554 11.90984589 -1.64823038 6.21356691 0 0 Z " fill="#D4EDD6" transform="translate(17,65)"/>
<path d="M0 0 C0 34.32 0 68.64 0 104 C-13.9597914 101.6733681 -24.57219852 94.3849248 -33 83 C-41.4719976 70.21498543 -43.71415238 56.08519896 -42 41 C-38.58141231 26.52038191 -29.65269765 14.1116265 -17.125 6.1796875 C-6.13888889 0 -6.13888889 0 0 0 Z M-25.6015625 18.49609375 C-36.78680583 30.17319632 -39.67865638 41.03496394 -39.34765625 56.82421875 C-38.98730174 63.34226294 -36.67132156 69.10390627 -34 75 C-33.61585937 75.85464844 -33.23171875 76.70929688 -32.8359375 77.58984375 C-29.38834188 84.44985544 -24.34727059 91.13006896 -16.875 93.6875 C-16.21757813 93.8834375 -15.56015625 94.079375 -14.8828125 94.28125 C-12.74051169 95.09905778 -11.44398837 96.15524921 -9.75 97.6875 C-7.08860371 100.42906662 -7.08860371 100.42906662 -3 100 C-2.9765756 90.84467145 -2.95893455 81.6893536 -2.94818783 72.53400135 C-2.94302359 68.28038773 -2.93604726 64.02679498 -2.92456055 59.77319336 C-2.84429888 32.8720428 -2.84429888 32.8720428 -4 6 C-12.50898611 6 -19.62786329 12.9275508 -25.6015625 18.49609375 Z " fill="#D4ECCF" transform="translate(78,36)"/>
<path d="M0 0 C13.09809276 0.67748756 22.35053809 10.14671491 31.25 18.984375 C33 21 33 21 34 24 C41.92 24 49.84 24 58 24 C58.08954636 17.15860982 58.08954636 17.15860982 55.4375 11.6875 C53.99609375 9.13671875 53.99609375 9.13671875 53 7 C53.33 6.34 53.66 5.68 54 5 C54.96302356 6.55961362 55.92021004 8.12283225 56.875 9.6875 C57.40867188 10.55761719 57.94234375 11.42773438 58.4921875 12.32421875 C61.32224886 17.34647789 62.42883381 20.28466474 61 26 C58.29387294 28.70612706 50.26928073 27.23515568 46.625 27.25 C45.366875 27.270625 44.10875 27.29125 42.8125 27.3125 C41.60851562 27.31765625 40.40453125 27.3228125 39.1640625 27.328125 C38.05498535 27.3374707 36.9459082 27.34681641 35.80322266 27.35644531 C33 27 33 27 31.23193359 25.66308594 C30.13046753 24.17612857 29.1206229 22.6223092 28.125 21.0625 C26.0169598 18.02444207 23.89113971 16.24866422 21 14 C21 13.34 21 12.68 21 12 C20.29488281 11.73445313 19.58976562 11.46890625 18.86328125 11.1953125 C15.84432214 9.93501033 13.04814924 8.46042006 10.1875 6.875 C8.72376953 6.06675781 8.72376953 6.06675781 7.23046875 5.2421875 C6.49441406 4.83226562 5.75835937 4.42234375 5 4 C5 3.34 5 2.68 5 2 C3.68 2 2.36 2 1 2 C1 32.69 1 63.38 1 95 C18.06268087 88.60952141 18.06268087 88.60952141 30 77 C30 81.08731137 28.52519877 81.93949549 25.6875 84.8125 C20.61779413 89.75239832 15.36373463 92.99094976 9 96 C8.03707031 96.57234375 8.03707031 96.57234375 7.0546875 97.15625 C4.32315095 98.27794562 1.92695055 98.05375117 -1 98 C-1.02312132 85.37004515 -1.04091401 72.7400953 -1.05181217 60.11012363 C-1.05704146 54.24617836 -1.06413994 48.38224751 -1.07543945 42.51831055 C-1.0862667 36.86438288 -1.09227649 31.21046913 -1.09487724 25.55653191 C-1.09673179 23.3942639 -1.10035295 21.23199669 -1.10573006 19.06973457 C-1.11293833 16.05241343 -1.11399103 13.03515057 -1.11352539 10.01782227 C-1.11712067 9.1143959 -1.12071594 8.21096954 -1.12442017 7.28016663 C-1.11405216 1.11405216 -1.11405216 1.11405216 0 0 Z " fill="#99D66C" transform="translate(99,39)"/>
<path d="M0 0 C5 5.28089888 5 5.28089888 5 8 C4.34 8 3.68 8 3 8 C1.5546875 6.49609375 1.5546875 6.49609375 -0.125 4.4375 C-12.61690229 -10.19219175 -28.97127483 -19.52046179 -48.30615234 -21.30517578 C-51.70914482 -21.43562135 -55.094714 -21.45880725 -58.5 -21.4375 C-60.19962891 -21.4674707 -60.19962891 -21.4674707 -61.93359375 -21.49804688 C-69.0722564 -21.49395829 -74.88589429 -20.41954612 -81.55664062 -17.85961914 C-84 -17 -84 -17 -87 -17 C-87 -16.34 -87 -15.68 -87 -15 C-87.928125 -14.835 -88.85625 -14.67 -89.8125 -14.5 C-96.17085885 -12.7186193 -102.15215163 -7.93276128 -106.703125 -3.24609375 C-108 -2 -108 -2 -110 -2 C-110.33 -1.01 -110.66 -0.02 -111 1 C-111.598125 1.556875 -112.19625 2.11375 -112.8125 2.6875 C-115.33125264 5.35018136 -116.53055369 7.9569461 -117.97265625 11.29296875 C-119 13 -119 13 -122 14 C-124.81147812 18.68579687 -126.37495156 23.8136752 -128 29 C-130.09166664 23.19911119 -127.28819011 17.38889682 -125 12 C-113.45293249 -6.64439802 -95.87823318 -18.47676276 -74.65234375 -23.5625 C-45.76459077 -28.32749018 -20.93964324 -20.3837235 0 0 Z " fill="#A1D956" transform="translate(147,36)"/>
<path d="M0 0 C0.94673584 0.00410889 1.89347168 0.00821777 2.86889648 0.01245117 C3.89563477 0.01438477 4.92237305 0.01631836 5.98022461 0.01831055 C7.05594727 0.03055664 8.13166992 0.04280273 9.23999023 0.05541992 C10.31958008 0.05606445 11.39916992 0.05670898 12.51147461 0.05737305 C20.53734426 0.10277394 20.53734426 0.10277394 21.67749023 1.24291992 C21.81864185 3.91350843 21.71996131 6.5672423 21.67749023 9.24291992 C21.01749023 9.24291992 20.35749023 9.24291992 19.67749023 9.24291992 C19.59499023 9.92354492 19.51249023 10.60416992 19.42749023 11.30541992 C17.3704636 19.36210755 11.55982806 25.59905525 5.67749023 31.24291992 C5.01749023 31.24291992 4.35749023 31.24291992 3.67749023 31.24291992 C3.44416992 31.82944336 3.21084961 32.4159668 2.97045898 33.02026367 C-0.64167901 39.22964892 -8.9004265 42.71995864 -15.32250977 45.24291992 C-17.75978889 46.52781172 -20.18660069 47.82747753 -22.59985352 49.15698242 C-30.09063047 52.14469547 -38.65117828 51.42917353 -46.57861328 51.42822266 C-48.64774436 51.43043353 -50.71636154 51.44871319 -52.78540039 51.4675293 C-54.74703125 51.47042969 -54.74703125 51.47042969 -56.74829102 51.47338867 C-58.53360229 51.479552 -58.53360229 51.479552 -60.35498047 51.48583984 C-63.32250977 51.24291992 -63.32250977 51.24291992 -66.32250977 49.24291992 C-65.15848633 49.25077515 -65.15848633 49.25077515 -63.97094727 49.25878906 C-60.42147649 49.27970256 -56.87201873 49.29262561 -53.32250977 49.30541992 C-51.49139648 49.31798828 -51.49139648 49.31798828 -49.62329102 49.33081055 C-43.42290044 49.34756836 -37.44988907 49.21564139 -31.32250977 48.24291992 C-31.98250977 47.58291992 -32.64250977 46.92291992 -33.32250977 46.24291992 C-32.59547852 46.0959668 -31.86844727 45.94901367 -31.11938477 45.79760742 C-19.29450743 43.15975017 -9.41320479 38.25926008 -0.32250977 30.24291992 C0.42772461 29.58678711 1.17795898 28.9306543 1.95092773 28.25463867 C9.31404125 21.38156172 14.23458352 13.23379801 18.67749023 4.24291992 C18.11763428 4.24291992 17.55777832 4.24291992 16.98095703 4.24291992 C10.21313477 4.24291992 3.4453125 4.24291992 -3.32250977 4.24291992 C-4.31250977 4.90291992 -5.30250977 5.56291992 -6.32250977 6.24291992 C-3.5840879 0.37487306 -3.5840879 0.37487306 0 0 Z " fill="#D6EDD5" transform="translate(136.322509765625,110.757080078125)"/>
<path d="M0 0 C2.475 0.495 2.475 0.495 5 1 C5 1.66 5 2.32 5 3 C4.01 3.33 3.02 3.66 2 4 C2 36.01 2 68.02 2 101 C13.6761981 99.70264466 20.80170753 95.21478803 29 87 C29.56847656 86.19304687 30.13695313 85.38609375 30.72265625 84.5546875 C33.54536969 80.856759 35.77112894 78.34566065 40.55029297 77.60449219 C47.04506292 77.21495832 53.51789384 77.50669545 60 78 C60 78.33 60 78.66 60 79 C59.42556152 78.98839844 58.85112305 78.97679688 58.25927734 78.96484375 C55.62978994 78.93517393 53.00441889 78.96708655 50.375 79 C49.01955078 78.97099609 49.01955078 78.97099609 47.63671875 78.94140625 C42.42511537 79.025295 42.42511537 79.025295 38.14233398 81.70263672 C36.62866475 83.74186252 35.30295385 85.82169034 34 88 C29.19081418 93.72476228 24.08513022 97.40694412 17.41796875 100.7734375 C14.8400702 102.02119647 14.8400702 102.02119647 12 104 C6.06 104.99 6.06 104.99 0 106 C0 71.02 0 36.04 0 0 Z " fill="#D5EDD5" transform="translate(96,35)"/>
<path d="M0 0 C0.495 1.98 0.495 1.98 1 4 C-0.28627711 5.17260611 -1.57919783 6.3379283 -2.875 7.5 C-3.59429687 8.1496875 -4.31359375 8.799375 -5.0546875 9.46875 C-7 11 -7 11 -9 11 C-9.24105469 11.75410156 -9.48210937 12.50820312 -9.73046875 13.28515625 C-13.57239624 21.50097043 -25.96869786 26.03209601 -34 29 C-56.09352681 35.96775589 -78.06827942 34.3674184 -98.78759766 24.08203125 C-104.30201758 21.15879418 -108.11665361 17.17471391 -112.0625 12.4375 C-114.26496374 9.83096668 -116.53769387 7.36760204 -119 5 C-118.67 4.34 -118.34 3.68 -118 3 C-117.17757812 3.86882812 -116.35515625 4.73765625 -115.5078125 5.6328125 C-109.19447377 12.20020721 -103.32885977 18.06978359 -95 22 C-94.15864502 22.45246094 -94.15864502 22.45246094 -93.30029297 22.9140625 C-76.97739259 31.59000641 -54.66652477 31.96685837 -37 27 C-34.17521085 25.94213205 -34.17521085 25.94213205 -31.875 24.625 C-31.05 24.18285156 -30.225 23.74070313 -29.375 23.28515625 C-28.199375 22.64900391 -28.199375 22.64900391 -27 22 C-25.6264461 21.35109678 -24.25153227 20.70506096 -22.875 20.0625 C-13.48327802 15.35715242 -6.65898217 7.94043578 0 0 Z " fill="#5BBB66" transform="translate(150,132)"/>
<path d="M0 0 C-3.13713099 2.09142066 -5.7956084 2.97476854 -9.375 4.125 C-26.93445977 10.14303081 -41.52422773 22.23117064 -49.93896484 38.85498047 C-57.32084895 54.62444387 -57.28255699 69.89878136 -57 87 C-60.98966855 83.01033145 -59.43713172 74.88056574 -59.4375 69.375 C-59.43956451 68.62312408 -59.44162903 67.87124817 -59.4437561 67.09658813 C-59.43077955 40.95093047 -59.43077955 40.95093047 -51 32 C-50.01 32 -49.02 32 -48 32 C-47.87753906 31.41863281 -47.75507812 30.83726563 -47.62890625 30.23828125 C-45.50038755 22.66286999 -39.95237729 17.73010282 -34 13 C-33.13503906 12.24203125 -32.27007812 11.4840625 -31.37890625 10.703125 C-22.20010004 3.0811041 -11.98819589 -0.42682431 0 0 Z " fill="#E6F4DC" transform="translate(76,17)"/>
<path d="M0 0 C0 32.01 0 64.02 0 97 C-8 98 -8 98 -10.5 96.6875 C-12 95 -12 95 -12 93 C-13.62553283 91.29319053 -15.29115995 89.62339805 -17 88 C-13.12697862 89.14430177 -9.99736561 90.23320098 -7 93 C-7 93.66 -7 94.32 -7 95 C-5.02 95.33 -3.04 95.66 -1 96 C-1.01252808 95.13208328 -1.02505615 94.26416656 -1.03796387 93.36994934 C-1.15719315 85.09132085 -1.27494948 76.8126729 -1.39115143 68.53400135 C-1.45090572 64.2803871 -1.51118119 60.02678171 -1.57275391 55.77319336 C-2.09501517 19.6451082 -2.09501517 19.6451082 -2 2 C-13.59619792 6.93967031 -20.97152437 12.39999297 -29 22 C-29 17.22513984 -25.78755555 14.96480756 -22.6484375 11.578125 C-16.12449934 5.22738874 -9.31816494 0 0 0 Z " fill="#BDE4AD" transform="translate(76,40)"/>
<path d="M0 0 C0.99 0.33 1.98 0.66 3 1 C2.10796875 1.85722656 1.2159375 2.71445312 0.296875 3.59765625 C-0.88581965 4.7521915 -2.06808876 5.90716278 -3.25 7.0625 C-3.83652344 7.62388672 -4.42304687 8.18527344 -5.02734375 8.76367188 C-8.90232674 12.57334616 -11.41299068 16.23234787 -14 21 C-14.55300781 21.52464844 -15.10601562 22.04929687 -15.67578125 22.58984375 C-19.79708427 26.97860596 -19.46300781 37.33419701 -19.3125 43.17578125 C-17.73384539 57.44287229 -13.05893813 70.4134057 -2 80 C-5.64822671 80 -6.15552706 79.38149351 -8.75 76.9375 C-18.09524213 67.28189928 -22.36769861 53.19421833 -22.22729492 40.06420898 C-21.89082538 23.75013562 -15.24008134 14.15632514 -4 3 C-1.84765625 1.0859375 -1.84765625 1.0859375 0 0 Z " fill="#7AC85C" transform="translate(61,47)"/>
<path d="M0 0 C1.24006181 3.82745723 1.12692202 7.63345592 1.09765625 11.609375 C1.0962413 12.33618469 1.09482635 13.06299438 1.09336853 13.81182861 C1.08778792 16.12459494 1.07523904 18.43726312 1.0625 20.75 C1.05748249 22.32161318 1.05292002 23.89322789 1.04882812 25.46484375 C1.03782485 29.30993343 1.02057361 33.1549501 1 37 C1.99 36.505 1.99 36.505 3 36 C3.226875 37.2375 3.45375 38.475 3.6875 39.75 C5.34316224 47.19460894 8.28488084 54.39640974 12.3125 60.875 C14.13903908 64.25747979 14.36895557 66.2182054 14 70 C13.01 69.34 12.02 68.68 11 68 C11 67.34 11 66.68 11 66 C10.34 66 9.68 66 9 66 C8.02306314 63.81304997 7.04943592 61.62478242 6.08203125 59.43359375 C5.19880005 57.44712069 4.29048596 55.47181592 3.375 53.5 C2.04964562 50.12637067 1.22137724 46.94912571 0.52734375 43.40625 C0.02092099 40.86961704 0.02092099 40.86961704 -1.04296875 37.9921875 C-2.59102667 32.64891395 -2.28902283 27.14022649 -2.25 21.625 C-2.25773438 20.53960937 -2.26546875 19.45421875 -2.2734375 18.3359375 C-2.25791554 11.90984589 -1.64823038 6.21356691 0 0 Z " fill="#BCE3AF" transform="translate(17,65)"/>
<path d="M0 0 C1.24401111 18.75273116 1.11938712 37.49909668 1.06866455 56.28198242 C1.05827533 60.54670711 1.05383415 64.81143807 1.04882812 69.07617188 C1.03823177 77.38413134 1.02125631 85.69206098 1 94 C-0.98 93.67 -2.96 93.34 -5 93 C-5 92.67 -5 92.34 -5 92 C-3.35 92 -1.7 92 0 92 C-0.12037171 86.09985094 -0.2446931 80.1998014 -0.37231445 74.29980469 C-0.41500569 72.30243049 -0.4567098 70.30503489 -0.49731445 68.30761719 C-0.72536453 57.1247172 -1.06206512 45.96368693 -1.66169739 34.79425049 C-1.99229655 28.52676913 -2.15310582 22.27696583 -2.125 16 C-2.12886719 15.07445312 -2.13273437 14.14890625 -2.13671875 13.1953125 C-2.13087036 9.15992533 -1.98935635 5.95742539 -1 2 C-5.455 3.485 -5.455 3.485 -10 5 C-5 0 -5 0 0 0 Z " fill="#85CD62" transform="translate(74,42)"/>
<path d="M0 0 C0.33 0 0.66 0 1 0 C1 30.36 1 60.72 1 92 C18.06268087 85.60952141 18.06268087 85.60952141 30 74 C30 78.12146651 28.436752 78.99637319 25.5625 81.875 C18.29527575 88.91640654 10.37043472 94 0 94 C0 62.98 0 31.96 0 0 Z " fill="#75C661" transform="translate(99,42)"/>
<path d="M0 0 C2.475 0.495 2.475 0.495 5 1 C5 1.66 5 2.32 5 3 C4.01 3.33 3.02 3.66 2 4 C2 36.01 2 68.02 2 101 C4.31 101.66 6.62 102.32 9 103 C7 105 7 105 0 106 C0 71.02 0 36.04 0 0 Z " fill="#E8F6E4" transform="translate(96,35)"/>
<path d="M0 0 C8.28679245 0.67924528 8.28679245 0.67924528 12 3 C10 4 10 4 1 3 C0.67 34.02 0.34 65.04 0 97 C4.455 96.01 4.455 96.01 9 95 C8.505 95.99 8.505 95.99 8 97 C5.93359375 97.4140625 5.93359375 97.4140625 3.4375 97.625 C2.19806641 97.73714844 2.19806641 97.73714844 0.93359375 97.8515625 C0.29550781 97.90054688 -0.34257813 97.94953125 -1 98 C-1.02312132 85.37004515 -1.04091401 72.7400953 -1.05181217 60.11012363 C-1.05704146 54.24617836 -1.06413994 48.38224751 -1.07543945 42.51831055 C-1.0862667 36.86438288 -1.09227649 31.21046913 -1.09487724 25.55653191 C-1.09673179 23.3942639 -1.10035295 21.23199669 -1.10573006 19.06973457 C-1.11293833 16.05241343 -1.11399103 13.03515057 -1.11352539 10.01782227 C-1.11712067 9.1143959 -1.12071594 8.21096954 -1.12442017 7.28016663 C-1.11405216 1.11405216 -1.11405216 1.11405216 0 0 Z " fill="#99D58A" transform="translate(99,39)"/>
<path d="M0 0 C0.99 0.495 0.99 0.495 2 1 C2 1.99 2 2.98 2 4 C2.66 4 3.32 4 4 4 C4.49628906 5.07378906 4.99257813 6.14757812 5.50390625 7.25390625 C11.40686519 19.73507576 17.41616303 26.33182623 29 34 C27.296875 34.6796875 27.296875 34.6796875 25 35 C13.98335797 29.64156527 5.67373923 19.10623746 1 8 C0.34139729 5.23474094 0.10775063 2.85539182 0 0 Z " fill="#E2F2E0" transform="translate(38,100)"/>
<path d="M0 0 C11.85312855 -1.50604457 23.36532999 4.07896526 32.65625 11.078125 C38.93420393 16.22604722 45.182909 21.4166423 50 28 C50 28.66 50 29.32 50 30 C49.34 30 48.68 30 48 30 C46.5546875 28.49609375 46.5546875 28.49609375 44.875 26.4375 C32.46844438 11.90776064 18.33717267 5.22427014 0 1 C0 0.67 0 0.34 0 0 Z " fill="#9AD650" transform="translate(102,14)"/>
<path d="M0 0 C1.52861819 3.05723639 0.7617671 5.79134463 0 9 C-0.6228989 10.73756008 -1.27088424 12.4662384 -1.9375 14.1875 C-6.87028652 27.51499231 -6.23154574 40.9861396 -6 55 C-9.98966855 51.01033145 -8.43713172 42.88056574 -8.4375 37.375 C-8.43956451 36.62312408 -8.44162903 35.87124817 -8.4437561 35.09658813 C-8.43761709 22.72746874 -8.27378164 10.02073846 0 0 Z " fill="#DDF0D7" transform="translate(25,49)"/>
<path d="M0 0 C0.94673584 0.00410889 1.89347168 0.00821777 2.86889648 0.01245117 C3.89563477 0.01438477 4.92237305 0.01631836 5.98022461 0.01831055 C7.05594727 0.03055664 8.13166992 0.04280273 9.23999023 0.05541992 C10.31958008 0.05606445 11.39916992 0.05670898 12.51147461 0.05737305 C20.53734426 0.10277394 20.53734426 0.10277394 21.67749023 1.24291992 C21.81864185 3.91350843 21.71996131 6.5672423 21.67749023 9.24291992 C21.01749023 9.24291992 20.35749023 9.24291992 19.67749023 9.24291992 C19.55374023 9.98541992 19.42999023 10.72791992 19.30249023 11.49291992 C18.72262322 14.04433477 17.94040284 15.96967722 16.67749023 18.24291992 C16.34749023 17.58291992 16.01749023 16.92291992 15.67749023 16.24291992 C16.61499023 13.61791992 16.61499023 13.61791992 17.67749023 11.24291992 C17.01749023 10.91291992 16.35749023 10.58291992 15.67749023 10.24291992 C16.66749023 8.26291992 17.65749023 6.28291992 18.67749023 4.24291992 C18.11763428 4.24291992 17.55777832 4.24291992 16.98095703 4.24291992 C10.21313477 4.24291992 3.4453125 4.24291992 -3.32250977 4.24291992 C-4.31250977 4.90291992 -5.30250977 5.56291992 -6.32250977 6.24291992 C-3.5840879 0.37487306 -3.5840879 0.37487306 0 0 Z " fill="#ABDCA2" transform="translate(136.322509765625,110.757080078125)"/>
<path d="M0 0 C0.66 0 1.32 0 2 0 C8.98591549 12.66197183 8.98591549 12.66197183 8 19 C7 20 7 20 4.68334961 20.11352539 C3.68311768 20.10828857 2.68288574 20.10305176 1.65234375 20.09765625 C0.57275391 20.09443359 -0.50683594 20.09121094 -1.61914062 20.08789062 C-2.75544922 20.07951172 -3.89175781 20.07113281 -5.0625 20.0625 C-6.20267578 20.05798828 -7.34285156 20.05347656 -8.51757812 20.04882812 C-11.34510351 20.03699747 -14.1725264 20.0205141 -17 20 C-17.33 19.34 -17.66 18.68 -18 18 C-17.01 16.515 -17.01 16.515 -16 15 C-15.67 15.33 -15.34 15.66 -15 16 C-13.5112814 16.08669432 -12.018555 16.10703494 -10.52734375 16.09765625 C-9.17866211 16.09282227 -9.17866211 16.09282227 -7.80273438 16.08789062 C-6.85720703 16.07951172 -5.91167969 16.07113281 -4.9375 16.0625 C-3.5134082 16.05573242 -3.5134082 16.05573242 -2.06054688 16.04882812 C0.29303065 16.0370011 2.64648477 16.02052025 5 16 C4.36315734 10.2902954 4.36315734 10.2902954 1.9375 5.1875 C0 2 0 2 0 0 Z " fill="#C4E5B3" transform="translate(150,44)"/>
<path d="M0 0 C2.72502965 -0.37722015 2.72502965 -0.37722015 5 -1 C1.12843452 3.78252206 -4.54059038 5.15220005 -10.39331055 5.8125 C-15.67398096 6.1923403 -20.96383294 6.18593753 -26.25610352 6.18530273 C-28.32523459 6.18751361 -30.39385177 6.20579327 -32.46289062 6.22460938 C-34.42452148 6.22750977 -34.42452148 6.22750977 -36.42578125 6.23046875 C-38.21109253 6.23663208 -38.21109253 6.23663208 -40.0324707 6.24291992 C-43 6 -43 6 -46 4 C-45.22398438 4.00523682 -44.44796875 4.01047363 -43.6484375 4.01586914 C-40.09896672 4.03678264 -36.54950896 4.04970568 -33 4.0625 C-31.16888672 4.07506836 -31.16888672 4.07506836 -29.30078125 4.08789062 C-23.10039068 4.10464844 -17.1273793 3.97272146 -11 3 C-11.66 2.34 -12.32 1.68 -13 1 C-8.07258785 -0.41976282 -5.02491706 -1.22227712 0 0 Z " fill="#A8DBAF" transform="translate(116,156)"/>
<path d="M0 0 C0.66 0.33 1.32 0.66 2 1 C0.54712339 2.33927721 -0.91247259 3.67126847 -2.375 5 C-3.18710937 5.7425 -3.99921875 6.485 -4.8359375 7.25 C-7 9 -7 9 -9 9 C-9.33 9.99 -9.66 10.98 -10 12 C-10.598125 12.556875 -11.19625 13.11375 -11.8125 13.6875 C-14.33125264 16.35018136 -15.53055369 18.9569461 -16.97265625 22.29296875 C-18 24 -18 24 -21 25 C-23.81147812 29.68579687 -25.37495156 34.8136752 -27 40 C-29.13472794 34.33049527 -26.15312186 28.31551958 -24 23 C-22.4516284 20.6866591 -21.29792341 19.63273505 -19 18 C-18.34 18 -17.68 18 -17 18 C-16.6596875 17.195625 -16.6596875 17.195625 -16.3125 16.375 C-12.39385179 9.28411276 -6.33532493 4.84683111 0 0 Z " fill="#A6DB79" transform="translate(46,25)"/>
<path d="M0 0 C6.63958124 0.61233028 10.54002446 5.63366354 14.71240234 10.38574219 C17.94292987 14.4358461 20.44483432 19.06308253 22 24 C21.55175781 26.16430664 21.55175781 26.16430664 21 28 C20.40574219 26.97261719 19.81148437 25.94523437 19.19921875 24.88671875 C14.24439517 16.53340732 9.17804385 9.56158923 2.0546875 2.94140625 C1.37664062 2.30074219 0.69859375 1.66007812 0 1 C0 0.67 0 0.34 0 0 Z " fill="#E7F4E0" transform="translate(134,32)"/>
<path d="M0 0 C-0.556875 0.23074219 -1.11375 0.46148438 -1.6875 0.69921875 C-6.49568184 2.75406673 -10.85449166 5.06106852 -15.23046875 7.91796875 C-17 9 -17 9 -19.5625 9.9375 C-22.74316093 11.32394194 -24.91942627 13.41312679 -27.44921875 15.7578125 C-29 17 -29 17 -31 17 C-31.33 17.99 -31.66 18.98 -32 20 C-33.62339805 21.70884005 -35.29319053 23.37446717 -37 25 C-37.8971875 25.8971875 -37.8971875 25.8971875 -38.8125 26.8125 C-39.204375 27.204375 -39.59625 27.59625 -40 28 C-40 22.44859 -34.74569358 18.7568581 -31 15 C-24.36426271 8.86059428 -17.24237236 4.66068589 -9 1 C-7.71029297 0.39285156 -7.71029297 0.39285156 -6.39453125 -0.2265625 C-3.76183508 -1.07692766 -2.55719914 -0.94711079 0 0 Z " fill="#97D54B" transform="translate(67,16)"/>
<path d="M0 0 C4.12486838 -0.08676908 8.24950384 -0.14031295 12.375 -0.1875 C13.550625 -0.21263672 14.72625 -0.23777344 15.9375 -0.26367188 C17.61972656 -0.27817383 17.61972656 -0.27817383 19.3359375 -0.29296875 C20.37282715 -0.3086792 21.4097168 -0.32438965 22.47802734 -0.34057617 C23.31027832 -0.22818604 24.1425293 -0.1157959 25 0 C27.70238949 4.05358424 27.22937614 6.18310104 27 11 C26.67 11.66 26.34 12.32 26 13 C25.34 13 24.68 13 24 13 C23.67 13.66 23.34 14.32 23 15 C23 13.68 23 12.36 23 11 C23.66 11 24.32 11 25 11 C24.67 8.36 24.34 5.72 24 3 C20.25014675 2.9128253 16.50055445 2.85954997 12.75 2.8125 C11.68652344 2.78736328 10.62304688 2.76222656 9.52734375 2.73632812 C7.99013672 2.72182617 7.99013672 2.72182617 6.421875 2.70703125 C5.00793457 2.68346558 5.00793457 2.68346558 3.56542969 2.65942383 C0.57689826 3.05616929 -0.77689217 4.01704271 -3 6 C-2 4 -1 2 0 0 Z " fill="#67C057" transform="translate(133,109)"/>
<path d="M0 0 C0.33 0 0.66 0 1 0 C1 14.52 1 29.04 1 44 C-3.8318812 44 -4.64823172 43.98424968 -8.3125 41.5 C-9.00988281 41.0359375 -9.70726562 40.571875 -10.42578125 40.09375 C-10.94527344 39.7328125 -11.46476562 39.371875 -12 39 C-10.1640625 38.40625 -10.1640625 38.40625 -8 38 C-6.31243867 38.96432076 -4.64333504 39.96210419 -3 41 C-2.01 40.505 -2.01 40.505 -1 40 C-0.67 26.8 -0.34 13.6 0 0 Z " fill="#5DBC51" transform="translate(73,90)"/>
<path d="M0 0 C3.62931005 3.03676963 7.07987254 6.04416731 10.3125 9.5 C16.08122427 15.35946825 23.41049869 19.03019514 31 22 C31 22.33 31 22.66 31 23 C24.02786116 23.90940941 19.55144437 21.05432118 14 17 C11.48472628 14.63815333 9.21198527 12.144765 7 9.5 C5.26795241 7.44704004 3.55456856 5.56629044 1.625 3.6875 C0 2 0 2 0 0 Z " fill="#6FC376" transform="translate(31,135)"/>
<path d="M0 0 C0.66 0.33 1.32 0.66 2 1 C-5.89450419 7.76671788 -12.9327209 11.19191622 -23 14 C-23 13.01 -23 12.02 -23 11 C-22.19175781 10.60167969 -21.38351563 10.20335937 -20.55078125 9.79296875 C-19.48214844 9.26316406 -18.41351563 8.73335937 -17.3125 8.1875 C-16.25675781 7.66542969 -15.20101562 7.14335937 -14.11328125 6.60546875 C-11.33223304 5.1713272 -8.66095433 3.64396622 -6 2 C-6 2.66 -6 3.32 -6 4 C-2.81765895 2.24545615 -2.81765895 2.24545615 0 0 Z " fill="#C0E4C2" transform="translate(138,143)"/>
<path d="M0 0 C0 7.26 0 14.52 0 22 C-0.33 22 -0.66 22 -1 22 C-1 15.07 -1 8.14 -1 1 C-12.7116176 6.01926469 -19.9147778 11.33213856 -28 21 C-28 16.22751284 -24.79098268 13.96972495 -21.65625 10.58203125 C-15.02994038 4.14086852 -9.38998525 0 0 0 Z " fill="#B3E090" transform="translate(75,41)"/>
<path d="M0 0 C4.99294085 -0.37682572 8.29838729 -0.01819157 12.90625 1.96875 C19.63769859 4.50832404 26.05517025 4.66541172 33.1875 4.75 C35.0447168 4.79447266 35.0447168 4.79447266 36.93945312 4.83984375 C39.95969794 4.90981081 42.97920364 4.96286824 46 5 C46 5.33 46 5.66 46 6 C31.54735571 8.30567477 13.0799573 8.62139244 0 1 C0 0.67 0 0.34 0 0 Z " fill="#3BAE4D" transform="translate(58,158)"/>
<path d="M0 0 C0.99 1.485 0.99 1.485 2 3 C2.66 2.01 3.32 1.02 4 0 C3.99476318 0.56920166 3.98952637 1.13840332 3.98413086 1.72485352 C3.96317113 4.33739083 3.95027996 6.94991037 3.9375 9.5625 C3.92912109 10.45775391 3.92074219 11.35300781 3.91210938 12.27539062 C3.89370429 17.29997943 4.13733602 22.04817291 5 27 C4.525625 26.505 4.05125 26.01 3.5625 25.5 C2.24076302 23.88457803 2.24076302 23.88457803 1 24 C-0.29235715 19.08497242 -0.11135517 14.22709898 -0.0625 9.1875 C-0.05798828 8.30384766 -0.05347656 7.42019531 -0.04882812 6.50976562 C-0.03709866 4.33981441 -0.01916495 2.16989828 0 0 Z " fill="#C9E8C0" transform="translate(36,77)"/>
<path d="M0 0 C4.6476949 4.23965316 7.00716808 9.08137471 9 15 C8.82142857 20.17857143 8.82142857 20.17857143 7 22 C5.00035018 22.08758003 2.9976389 22.10696576 0.99609375 22.09765625 C-0.21884766 22.09443359 -1.43378906 22.09121094 -2.68554688 22.08789062 C-3.96494141 22.07951172 -5.24433594 22.07113281 -6.5625 22.0625 C-7.84576172 22.05798828 -9.12902344 22.05347656 -10.45117188 22.04882812 C-13.63416022 22.03699545 -16.81705762 22.02051068 -20 22 C-20 21.67 -20 21.34 -20 21 C-11.42 20.67 -2.84 20.34 6 20 C6 14.18925007 5.61905516 12.57585164 3 7.75 C0 2.16666667 0 2.16666667 0 0 Z " fill="#7BC94A" transform="translate(152,44)"/>
<path d="M0 0 C0.99 0.33 1.98 0.66 3 1 C2.10796875 1.85722656 1.2159375 2.71445312 0.296875 3.59765625 C-0.88581965 4.7521915 -2.06808876 5.90716278 -3.25 7.0625 C-4.12978516 7.90458008 -4.12978516 7.90458008 -5.02734375 8.76367188 C-8.88019966 12.55159201 -11.52573785 16.19233715 -14 21 C-14.33 21 -14.66 21 -15 21 C-15.52154618 16.84625718 -15.24624999 15.33753231 -12.734375 11.89453125 C-11.75468051 10.85278064 -10.75927078 9.82562296 -9.75 8.8125 C-9.25886719 8.29236328 -8.76773438 7.77222656 -8.26171875 7.23632812 C-3.04322318 1.78821875 -3.04322318 1.78821875 0 0 Z " fill="#75C73A" transform="translate(61,47)"/>
<path d="M0 0 C2.97958087 -0.09727554 5.91519899 -0.03785892 8.89379883 0.08398438 C9.92956055 0.10654297 10.96532227 0.12910156 12.0324707 0.15234375 C14.59186287 0.21131592 17.14835834 0.2935587 19.70629883 0.39648438 C19.70629883 0.72648437 19.70629883 1.05648437 19.70629883 1.39648438 C19.13186035 1.38488281 18.55742187 1.37328125 17.96557617 1.36132812 C15.33608876 1.33165831 12.71071772 1.36357093 10.08129883 1.39648438 C8.72584961 1.36748047 8.72584961 1.36748047 7.34301758 1.33789062 C2.12358979 1.41609836 2.12358979 1.41609836 -2.14477539 4.12109375 C-3.63980063 6.158271 -4.96628652 8.24789511 -6.29370117 10.39648438 C-8.41088867 12.49023438 -8.41088867 12.49023438 -10.16870117 13.89648438 C-11.06202148 14.62351562 -11.06202148 14.62351562 -11.97338867 15.36523438 C-12.62694336 15.87570313 -12.62694336 15.87570313 -13.29370117 16.39648438 C-13.29370117 13.39648438 -13.29370117 13.39648438 -11.64916992 11.52929688 C-10.93374023 10.86671875 -10.21831055 10.20414063 -9.48120117 9.52148438 C-6.23725281 6.52770377 -6.23725281 6.52770377 -4.23120117 2.65820312 C-2.29370117 0.39648438 -2.29370117 0.39648438 0 0 Z " fill="#E5F4E3" transform="translate(136.293701171875,112.603515625)"/>
<path d="M0 0 C0 0.33 0 0.66 0 1 C-7.59 1.33 -15.18 1.66 -23 2 C-22.34 2.66 -21.68 3.32 -21 4 C-22.08667969 3.96519531 -22.08667969 3.96519531 -23.1953125 3.9296875 C-28.65137454 3.82784101 -32.83149901 4.109085 -38 6 C-40.16015625 5.55859375 -40.16015625 5.55859375 -42 5 C-28.40994114 -1.37389695 -14.71861228 -0.52125411 0 0 Z " fill="#CAE9A6" transform="translate(102,14)"/>
<path d="M0 0 C4.91918188 1.4987414 7.9236167 4.34948908 11.5625 7.8125 C12.40844727 8.59463867 12.40844727 8.59463867 13.27148438 9.39257812 C16.47295532 12.39185091 19.4411841 15.41515523 22 19 C22 19.66 22 20.32 22 21 C21.34 21 20.68 21 20 21 C18.5546875 19.49609375 18.5546875 19.49609375 16.875 17.4375 C13.78615074 13.79523192 10.50015479 10.69419775 6.8671875 7.60546875 C4.43707503 5.51597874 2.19630005 3.3335688 0 1 C0 0.67 0 0.34 0 0 Z " fill="#93D350" transform="translate(130,23)"/>
<path d="M0 0 C2.65678772 2.31906047 3.70314449 4.38452671 4.875 7.6875 C7.9090622 15.59444997 12.32722986 21.76190225 18 28 C10.33932034 24.44504408 6.55105289 18.76364752 3.0625 11.3125 C2.75594482 10.65870361 2.44938965 10.00490723 2.13354492 9.33129883 C0.6181476 5.92765102 0 3.79057984 0 0 Z " fill="#99D58E" transform="translate(41,100)"/>
<path d="M0 0 C0.36196676 5.79146822 -0.61789511 9.6860737 -3 15 C-3.99 15.495 -3.99 15.495 -5 16 C-4.34 13.69 -3.68 11.38 -3 9 C-3.66 8.67 -4.32 8.34 -5 8 C-4.01 6.02 -3.02 4.04 -2 2 C-8.27 2 -14.54 2 -21 2 C-21 1.67 -21 1.34 -21 1 C-17.68752012 0.83293193 -14.37501287 0.66641273 -11.0625 0.5 C-10.11697266 0.45230469 -9.17144531 0.40460938 -8.19726562 0.35546875 C-7.29814453 0.31035156 -6.39902344 0.26523438 -5.47265625 0.21875 C-4.64000244 0.17685547 -3.80734863 0.13496094 -2.94946289 0.09179688 C-1.96692123 0.04553067 -0.98363035 0 0 0 Z " fill="#B4DDB3" transform="translate(157,113)"/>
<path d="M0 0 C4.33333333 4.33333333 8.66666667 8.66666667 13 13 C12.67 13.66 12.34 14.32 12 15 C7.1871191 12.13518994 2.98565454 8.82786692 0 4 C0 2.68 0 1.36 0 0 Z " fill="#E3F3E3" transform="translate(30,129)"/>
<path d="M0 0 C-1.75066796 3.88609811 -4.18324006 7.27812258 -6.625 10.75 C-7.04523437 11.35199219 -7.46546875 11.95398438 -7.8984375 12.57421875 C-8.92993137 14.05113043 -9.96464579 15.52579194 -11 17 C-12.125 13.25 -12.125 13.25 -11 11 C-10.34 11 -9.68 11 -9 11 C-8.896875 10.443125 -8.79375 9.88625 -8.6875 9.3125 C-7.39543399 4.96645979 -5.16504401 0 0 0 Z " fill="#EAF6E4" transform="translate(37,38)"/>
<path d="M0 0 C8.28679245 0.67924528 8.28679245 0.67924528 12 3 C10 4 10 4 1 3 C0.67 10.59 0.34 18.18 0 26 C-0.33 26 -0.66 26 -1 26 C-1.02886751 21.85418113 -1.04675327 17.70838784 -1.0625 13.5625 C-1.07087891 12.37849609 -1.07925781 11.19449219 -1.08789062 9.97460938 C-1.09111328 8.84990234 -1.09433594 7.72519531 -1.09765625 6.56640625 C-1.10289307 5.52427979 -1.10812988 4.48215332 -1.11352539 3.40844727 C-1 1 -1 1 0 0 Z " fill="#ACDD83" transform="translate(99,39)"/>
<path d="M0 0 C0.99 0.33 1.98 0.66 3 1 C1.8803014 2.00593243 0.7540588 3.0045849 -0.375 4 C-1.31472656 4.8353125 -1.31472656 4.8353125 -2.2734375 5.6875 C-4 7 -4 7 -6 7 C-6.33 7.99 -6.66 8.98 -7 10 C-8.62339805 11.70884005 -10.29319053 13.37446717 -12 15 C-12.8971875 15.8971875 -12.8971875 15.8971875 -13.8125 16.8125 C-14.204375 17.204375 -14.59625 17.59625 -15 18 C-15 12.49088268 -9.68192243 8.78419806 -6 5 C-4.04087125 3.07017446 -2.27562384 1.57126408 0 0 Z " fill="#8FD248" transform="translate(42,26)"/>
<path d="M0 0 C-3.25418258 2.16945505 -6.24348331 3.22860706 -9.9375 4.5 C-14.70658895 6.10475666 -14.70658895 6.10475666 -19.25390625 8.21875 C-21 9 -21 9 -24 8 C-16.78237372 2.89927528 -9.03806244 -0.71353124 0 0 Z " fill="#ECF7E6" transform="translate(76,17)"/>
<path d="M0 0 C5.4528666 5.23475194 10.35043077 11.04855139 15 17 C11.05125638 15.66531083 8.61187264 14.0199164 5.6875 11.0625 C4.99011719 10.37285156 4.29273438 9.68320313 3.57421875 8.97265625 C2 7 2 7 2 4 C1.34 4 0.68 4 0 4 C0 2.68 0 1.36 0 0 Z " fill="#54B956" transform="translate(27,131)"/>
<path d="M0 0 C3.87302138 1.14430177 7.00263439 2.23320098 10 5 C10 5.66 10 6.32 10 7 C12.31 7 14.62 7 17 7 C17 7.66 17 8.32 17 9 C9.65882353 10.34588235 9.65882353 10.34588235 6.5 8.6875 C5 7 5 7 5 5 C3.37446717 3.29319053 1.70884005 1.62339805 0 0 Z " fill="#D5EDD5" transform="translate(59,128)"/>
<path d="M0 0 C0.5775 0.226875 1.155 0.45375 1.75 0.6875 C-2.80596183 5.24346183 -4.65821437 6.95507937 -11.25 7.6875 C-3.32142857 -0.46130952 -3.32142857 -0.46130952 0 0 Z " fill="#DAEFC4" transform="translate(56.25,21.3125)"/>
<path d="M0 0 C5.98993047 -0.3152595 9.63560356 0.31780178 15 3 C15 3.33 15 3.66 15 4 C9.01006953 4.3152595 5.36439644 3.68219822 0 1 C0 0.67 0 0.34 0 0 Z " fill="#51B75E" transform="translate(58,158)"/>
<path d="M0 0 C4.91516014 1.15650827 6.91011365 4.05855614 9.765625 7.9296875 C10.98750748 9.97904735 11.56086126 11.66838238 12 14 C11.34 14 10.68 14 10 14 C8.88671875 12.390625 8.88671875 12.390625 7.6875 10.25 C5.56455003 6.67384023 3.35901355 4.49526721 0 2 C0 1.34 0 0.68 0 0 Z " fill="#86CE54" transform="translate(120,51)"/>
<path d="M0 0 C3.375 -0.125 3.375 -0.125 7 0 C7.66 0.66 8.32 1.32 9 2 C9.99 2.66 10.98 3.32 12 4 C13.33790641 4.99387334 14.67218122 5.9926892 16 7 C9.97229862 6.52412884 5.23321711 3.80277043 0 1 C0 0.67 0 0.34 0 0 Z " fill="#C2E5C6" transform="translate(50,151)"/>
<path d="M0 0 C0.721875 0.185625 1.44375 0.37125 2.1875 0.5625 C5.12826973 1.01995307 7.14103058 0.73516357 10 0 C7.30271832 3.33193619 3.97939813 4.60371996 0 6 C-2.4375 5.6875 -2.4375 5.6875 -4 5 C-2.35 4.67 -0.7 4.34 1 4 C0.67 2.68 0.34 1.36 0 0 Z " fill="#9DD6A4" transform="translate(111,155)"/>
<path d="M0 0 C0 3 0 3 -1.71484375 4.90234375 C-3.193901 6.25662992 -4.67306728 7.61079703 -6.15234375 8.96484375 C-8.05106103 11.0562427 -8.61175486 12.24530829 -9 15 C-9.33 14.34 -9.66 13.68 -10 13 C-10.66 12.67 -11.32 12.34 -12 12 C-8.04 8.04 -4.08 4.08 0 0 Z " fill="#CAE8C7" transform="translate(131,116)"/>
<path d="M0 0 C2.77579761 2.77579761 2.86061387 5.30306937 3.625 9.125 C3.88539062 10.40632813 4.14578125 11.68765625 4.4140625 13.0078125 C4.60742188 13.99523437 4.80078125 14.98265625 5 16 C1.83367293 12.97247083 0.13894387 10.41134843 -0.12109375 5.8984375 C-0.12456823 3.93188044 -0.06662479 1.96543122 0 0 Z " fill="#7FCA72" transform="translate(16,104)"/>
<path d="M0 0 C0.33 1.32 0.66 2.64 1 4 C-2.3 6.64 -5.6 9.28 -9 12 C-9.33 11.34 -9.66 10.68 -10 10 C-9.0925 9.278125 -8.185 8.55625 -7.25 7.8125 C-4.4298006 5.47347206 -2.19093342 2.94933345 0 0 Z " fill="#65BF65" transform="translate(150,132)"/>
<path d="M0 0 C-2.82553984 4.23830976 -5.12180888 3.97715348 -10 5 C-10 4.01 -10 3.02 -10 2 C-3.375 -1.125 -3.375 -1.125 0 0 Z " fill="#DAEFDC" transform="translate(125,152)"/>
<path d="M0 0 C0.99 0.33 1.98 0.66 3 1 C2.40832031 1.45890625 1.81664062 1.9178125 1.20703125 2.390625 C-2.88379822 5.56719079 -6.96818271 8.74853444 -11 12 C-9.49650623 8.33213607 -7.36271208 6.31089607 -4.375 3.75 C-3.14910156 2.69039062 -3.14910156 2.69039062 -1.8984375 1.609375 C-1.27195312 1.07828125 -0.64546875 0.5471875 0 0 Z " fill="#8CD057" transform="translate(61,47)"/>
<path d="M0 0 C1.0169313 2.65498232 1.13022151 3.69155375 0.00390625 6.359375 C-0.47175781 7.14828125 -0.94742188 7.9371875 -1.4375 8.75 C-2.14712891 9.94882813 -2.14712891 9.94882813 -2.87109375 11.171875 C-3.24363281 11.77515625 -3.61617187 12.3784375 -4 13 C-4.86443295 10.5653629 -5.12994709 9.36863937 -4.2578125 6.89453125 C-3.88398437 6.20746094 -3.51015625 5.52039063 -3.125 4.8125 C-2.57199219 3.77029297 -2.57199219 3.77029297 -2.0078125 2.70703125 C-1 1 -1 1 0 0 Z " fill="#A1D882" transform="translate(45,64)"/>
<path d="M0 0 C-3.46642155 3.17755309 -7.38898294 4.45964644 -12 5 C-14.25 4.546875 -14.25 4.546875 -16 4 C-14.274773 3.32320342 -12.54461061 2.65898 -10.8125 2 C-9.84957031 1.62875 -8.88664062 1.2575 -7.89453125 0.875 C-5.07817642 0.02363228 -2.91835561 -0.17072647 0 0 Z " fill="#41B050" transform="translate(121,158)"/>
<path d="M0 0 C0.66 0 1.32 0 2 0 C2.33 1.32 2.66 2.64 3 4 C4.32 3.67 5.64 3.34 7 3 C7 5.31 7 7.62 7 10 C6.01 9.34 5.02 8.68 4 8 C4 7.34 4 6.68 4 6 C3.34 6 2.68 6 2 6 C1.34 4.02 0.68 2.04 0 0 Z " fill="#AADCA8" transform="translate(24,125)"/>
<path d="M0 0 C0.33 0.99 0.66 1.98 1 3 C-1.31 5.31 -3.62 7.62 -6 10 C-6.66 9.34 -7.32 8.68 -8 8 C-5.36 5.36 -2.72 2.72 0 0 Z " fill="#ECF7EC" transform="translate(130,119)"/>
<path d="M0 0 C3.33161397 2.98696425 5.34826557 5.82719722 7 10 C6.57421875 12.1875 6.57421875 12.1875 6 14 C4.99515796 12.04414675 3.99626195 10.08523763 3 8.125 C2.1646875 6.48917969 2.1646875 6.48917969 1.3125 4.8203125 C0 2 0 2 0 0 Z " fill="#87CE50" transform="translate(152,44)"/>
<path d="M0 0 C0.99 0 1.98 0 3 0 C1.84826645 2.46800047 0.95216435 4.04783565 -1 6 C-1.99 6 -2.98 6 -4 6 C-2.84826645 3.53199953 -1.95216435 1.95216435 0 0 Z " fill="#E3F3E3" transform="translate(136,141)"/>
<path d="M0 0 C-1.29299694 2.88437779 -2.65941363 4.87219421 -5 7 C-5 6.34 -5 5.68 -5 5 C-5.66 4.67 -6.32 4.34 -7 4 C-3.375 0 -3.375 0 0 0 Z " fill="#D7EED7" transform="translate(144,136)"/>
<path d="M0 0 C0.33 0.66 0.66 1.32 1 2 C-1.64 2.66 -4.28 3.32 -7 4 C-7.33 3.01 -7.66 2.02 -8 1 C-3.375 -1.125 -3.375 -1.125 0 0 Z " fill="#E0F1D7" transform="translate(74,38)"/>
<path d="M0 0 C4.43090471 1.20842856 6.98112756 2.51668565 10 6 C5.16743695 5.58578031 3.17320782 3.53586014 0 0 Z " fill="#A7DBA5" transform="translate(59,128)"/>
<path d="M0 0 C0.66 0 1.32 0 2 0 C0.8141763 3.37503669 -0.27573689 5.64722731 -3 8 C-3.33 7.01 -3.66 6.02 -4 5 C-2.1875 2.3125 -2.1875 2.3125 0 0 Z " fill="#E9F6E4" transform="translate(48,54)"/>
<path d="M0 0 C0 4.05345102 -1.58160112 5.8215329 -4 9 C-4.99 9.33 -5.98 9.66 -7 10 C-5.33248852 6.05860922 -2.77289351 3.2107188 0 0 Z " fill="#86CD41" transform="translate(33,34)"/>
<path d="M0 0 C3.3 0 6.6 0 10 0 C10.33 0.99 10.66 1.98 11 3 C6.72213252 2.50639991 3.90432869 1.95216435 0 0 Z " fill="#A6DB5F" transform="translate(102,14)"/>
<path d="M0 0 C2.0625 0.4375 2.0625 0.4375 4 1 C2.60667426 4.36720387 1.0210714 5.9859524 -2 8 C-1 6 0 4 1 2 C0.34 1.67 -0.32 1.34 -1 1 C-0.67 0.67 -0.34 0.34 0 0 Z " fill="#BCE2BC" transform="translate(143,134)"/>
<path d="M0 0 C2.52588702 2.36292656 3.88820837 3.66462511 5 7 C4.01 7.33 3.02 7.66 2 8 C0.23537317 4.91190305 0 3.76687864 0 0 Z " fill="#E4F4E4" transform="translate(25,121)"/>
<path d="M0 0 C2.76223278 2.76223278 2.57856291 5.20706617 3 9 C2.01 8.67 1.02 8.34 0 8 C0 5.36 0 2.72 0 0 Z " fill="#E0F2DE" transform="translate(19,105)"/>
<path d="M0 0 C0.75 1.6875 0.75 1.6875 1 4 C-0.9375 6.75 -0.9375 6.75 -3 9 C-3.36923077 3.46153846 -3.36923077 3.46153846 -1.5 1.125 C-1.005 0.75375 -0.51 0.3825 0 0 Z " fill="#82CC53" transform="translate(49,59)"/>
<path d="M0 0 C1.231394 2.46278801 1.07159196 4.2795055 1 7 C-0.65 7.66 -2.3 8.32 -4 9 C-2.94124926 5.59687262 -1.99097846 2.98646769 0 0 Z " fill="#CAE9B4" transform="translate(25,49)"/>
<path d="M0 0 C0.66 0.33 1.32 0.66 2 1 C-0.31 2.65 -2.62 4.3 -5 6 C-5.66 5.67 -6.32 5.34 -7 5 C-4.63707344 2.47411298 -3.33537489 1.11179163 0 0 Z " fill="#B0DF87" transform="translate(69,41)"/>
<path d="M0 0 C0.33 0 0.66 0 1 0 C1 1.65 1 3.3 1 5 C-3.75 4.25 -3.75 4.25 -6 2 C-4.02 2 -2.04 2 0 2 C0 1.34 0 0.68 0 0 Z " fill="#EDF7EE" transform="translate(76,135)"/>
<path d="M0 0 C0.33 0.66 0.66 1.32 1 2 C1.66 2 2.32 2 3 2 C3.33 4.31 3.66 6.62 4 9 C3.525625 8.505 3.05125 8.01 2.5625 7.5 C1.24076302 5.88457803 1.24076302 5.88457803 0 6 C0 4.02 0 2.04 0 0 Z " fill="#D3ECCD" transform="translate(37,95)"/>
<path d="M0 0 C2.64 0.33 5.28 0.66 8 1 C8 1.66 8 2.32 8 3 C5.6568787 2.74438677 3.32156597 2.40729228 1 2 C0.67 1.34 0.34 0.68 0 0 Z " fill="#EAF6E0" transform="translate(111,19)"/>
</svg>
